# xmcd CD database file
#
# Track frame offsets:
#	150
#	11730
#	29667
#	50205
#	67142
#	90232
#	103512
#	122515
#	148970
#	165559
#	183842
#	202595
#	222140
#	238705
#	259500
#	277395
#
# Disc length: 3921 seconds
#
# Revision: 0
# Processed by: cddbd v1.5.1PL0 Copyright (c) Steve Scherf et al.
# Submitted via: CDex 1.51
#
DISCID=e90f4f10
DTITLE=Debbie Schreyer Trio - Banjo on the Boardwalk
DYEAR=1998
DGENRE=Jazz
TTITLE0=Alabama Jubilee
TTITLE1=Varsity Drag
TTITLE2='S Wonderful
TTITLE3=Crazy Rythum
TTITLE4=Dinah
TTITLE5=Stumbling
TTITLE6=Doin' the Raccoon
TTITLE7=Louisiana Fairy Tale
TTITLE8=There'll be Some Changes Made
TTITLE9=Because My Baby Don't Mean Maybe Now
TTITLE10=Oh By Jingo! Oh By Gee!
TTITLE11=Charleston
TTITLE12=Avalon
TTITLE13=Oh Lady Be Good
TTITLE14=Five Foot Two, Eyes of Blue
TTITLE15=Tiger Rag
EXTD=YEAR: 1998
EXTT0=
EXTT1=
EXTT2=
EXTT3=
EXTT4=
EXTT5=
EXTT6=
EXTT7=
EXTT8=
EXTT9=
EXTT10=
EXTT11=
EXTT12=
EXTT13=
EXTT14=
EXTT15=
PLAYORDER=
